<svg width="200" height="200" viewBox="0 0 200 200" fill="none" xmlns="http://www.w3.org/2000/svg">
<g clip-path="url(#clip0_11_16)">
<path d="M0 12.5C0 5.58594 5.58594 0 12.5 0H62.5C69.4141 0 75 5.58594 75 12.5V162.5C75 183.203 58.2031 200 37.5 200C16.7969 200 0 183.203 0 162.5V12.5ZM87.3438 166.367C87.4609 165.078 87.5 163.789 87.5 162.5V60.1562L116.953 30.7031C121.836 25.8203 129.766 25.8203 134.648 30.7031L170 66.0547C174.883 70.9375 174.883 78.8672 170 83.75L87.3438 166.367ZM71.4063 200L146.406 125H187.5C194.414 125 200 130.586 200 137.5V187.5C200 194.414 194.414 200 187.5 200H71.4063ZM50 25H25V50H50V25ZM25 75V100H50V75H25ZM37.5 171.875C39.9864 171.875 42.371 170.887 44.1291 169.129C45.8873 167.371 46.875 164.986 46.875 162.5C46.875 160.014 45.8873 157.629 44.1291 155.871C42.371 154.113 39.9864 153.125 37.5 153.125C35.0136 153.125 32.629 154.113 30.8709 155.871C29.1127 157.629 28.125 160.014 28.125 162.5C28.125 164.986 29.1127 167.371 30.8709 169.129C32.629 170.887 35.0136 171.875 37.5 171.875Z" fill="white"/>
</g>
<defs>
<clipPath id="clip0_11_16">
<rect width="200" height="200" fill="white"/>
</clipPath>
</defs>
</svg>
