<svg width="37" height="37" viewBox="0 0 37 37" fill="none" xmlns="http://www.w3.org/2000/svg">
<path d="M2.33334 30.3333V11.3333C2.33334 8.94639 3.28155 6.6572 4.96937 4.96937C6.6572 3.28155 8.94639 2.33334 11.3333 2.33334H25.3333C26.5152 2.33334 27.6856 2.56613 28.7775 3.01842C29.8694 3.47071 30.8616 4.13365 31.6973 4.96937C32.533 5.8051 33.196 6.79725 33.6483 7.88918C34.1005 8.98112 34.3333 10.1514 34.3333 11.3333V25.3333C34.3333 26.5152 34.1005 27.6856 33.6483 28.7775C33.196 29.8694 32.533 30.8616 31.6973 31.6973C30.8616 32.533 29.8694 33.196 28.7775 33.6483C27.6856 34.1005 26.5152 34.3333 25.3333 34.3333H6.33334C5.27247 34.3333 4.25505 33.9119 3.50491 33.1618C2.75476 32.4116 2.33334 31.3942 2.33334 30.3333Z" stroke="#33AE8A" stroke-width="4" stroke-linecap="round" stroke-linejoin="round"/>
<path d="M10.3333 18.3333H17.3333C18.3942 18.3333 19.4116 18.7548 20.1618 19.5049C20.9119 20.2551 21.3333 21.2725 21.3333 22.3333C21.3333 23.3942 20.9119 24.4116 20.1618 25.1618C19.4116 25.9119 18.3942 26.3333 17.3333 26.3333H10.3333V12.3333C10.3333 11.8029 10.544 11.2942 10.9191 10.9191C11.2942 10.544 11.8029 10.3333 12.3333 10.3333H15.3333C16.3942 10.3333 17.4116 10.7548 18.1618 11.5049C18.9119 12.2551 19.3333 13.2725 19.3333 14.3333C19.3333 15.3942 18.9119 16.4116 18.1618 17.1618C17.4116 17.9119 16.3942 18.3333 15.3333 18.3333H12.3333" stroke="#33AE8A" stroke-width="4" stroke-linecap="round" stroke-linejoin="round"/>
<path d="M26.3333 26.3333H26.3533" stroke="#33AE8A" stroke-width="4" stroke-linecap="round" stroke-linejoin="round"/>
</svg>
